#!OML:ASF F:\VICON\USERDATA\INSTALL\rory3\rory3.ASF
:FULLY-SPECIFIED
:DEGREES
711
root 3.65234 16.489 0.309913 9.63278 5.01566 5.55754
lowerback -4.46072 4.17131 1.31193
upperback 0.590419 5.64535 -4.18027
thorax 3.66137 2.89294 -4.61812
lowerneck 1.61391 7.29203 6.34228
upperneck 57.6769 8.7166 8.65734
head 26.0955 5.6961 5.83004
rclavicle -2.05618e-014 -8.74653e-015
rhumerus -44.529 -5.59165 -86.6321
rradius 59.4958
rwrist -46.5585
rhand -5.61635 -49.8442
rfingers 7.12502
rthumb 20.2011 -78.8138
lclavicle -2.05618e-014 -8.74653e-015
lhumerus -21.8483 -8.32307 85.7763
lradius 37.7869
lwrist 73.5453
lhand -41.9517 -15.4375
lfingers 7.12502
lthumb -14.8487 14.0104
rfemur -52.1026 12.6332 4.9557
rtibia 76.677
rfoot 8.14728 11.704
rtoes -24.6794
lfemur -29.0968 -7.57102 -33.4315
ltibia 45.6455
lfoot -21.6699 13.9035
ltoes 8.86195
712
root 3.65343 16.4896 0.309489 9.6143 5.05379 5.52858
lowerback -4.50645 3.98524 1.2506
upperback 0.670501 5.39521 -4.00724
thorax 3.72316 2.76531 -4.41985
lowerneck 1.47653 7.46204 6.09583
upperneck 57.7757 9.10889 8.50208
head 26.2401 5.7587 5.88103
rclavicle 2.96065e-014 -8.84592e-015
rhumerus -44.3856 -4.99022 -86.6498
rradius 59.5019
rwrist -46.5394
rhand -5.6559 -49.463
rfingers 7.12502
rthumb 20.1631 -78.4366
lclavicle 2.96065e-014 -8.84592e-015
lhumerus -21.806 -7.61962 85.7703
lradius 37.8547
lwrist 73.5323
lhand -42.1404 -14.9201
lfingers 7.12502
lthumb -15.0305 14.5143
rfemur -52.0697 12.5858 5.02361
rtibia 76.6966
rfoot 8.04655 11.7807
rtoes -25.1239
lfemur -29.0577 -7.57575 -33.4173
ltibia 45.6498
lfoot -21.6423 13.9936
ltoes 8.61811
713
root 3.65346 16.4944 0.310556 9.54487 5.10922 5.44333
lowerback -4.54939 3.77613 1.17182
upperback 0.779296 5.11378 -3.78104
thorax 3.80587 2.6213 -4.1588
lowerneck 1.39825 7.62394 5.8786
upperneck 57.8313 9.52295 8.25016
head 26.3166 5.83267 5.85239
rclavicle 2.1183e-014 4.69629e-015
rhumerus -44.1507 -4.26901 -86.6802
rradius 59.4244
rwrist -46.6019
rhand -5.89395 -49.1213
rfingers 7.12502
rthumb 19.9343 -78.1189
lclavicle 2.1183e-014 4.69629e-015
lhumerus -21.7071 -6.89122 85.7748
lradius 37.8378
lwrist 73.5793
lhand -42.326 -14.6627
lfingers 7.12502
lthumb -15.2092 14.7582
rfemur -51.955 12.6009 5.16934
rtibia 76.6717
rfoot 7.96967 11.7742
rtoes -25.8056
lfemur -28.9637 -7.60939 -33.3206
ltibia 45.6283
lfoot -21.6348 13.9879
ltoes 8.716
714
root 3.65495 16.4969 0.313416 9.55844 5.11564 5.39562
lowerback -4.6982 3.59542 1.0502
upperback 0.878427 4.87383 -3.56574
thorax 3.94199 2.49727 -3.87564
lowerneck 1.37237 7.76377 5.65973
upperneck 57.8207 9.90932 7.96551
head 26.283 5.90278 5.77377
rclavicle -3.66711e-014 -4.68386e-015
rhumerus -43.9874 -3.57229 -86.6678
rradius 59.5614
rwrist -46.6506
rhand -6.03945 -49.7536
rfingers 7.12502
rthumb 19.7944 -78.7656
lclavicle -3.66711e-014 -4.68386e-015
lhumerus -21.5446 -6.13069 85.8067
lradius 37.6173
lwrist 73.4756
lhand -42.79 -15.1627
lfingers 7.12502
lthumb -15.6562 14.2238
rfemur -51.9545 12.6154 5.23571
rtibia 76.6587
rfoot 7.85356 11.7653
rtoes -26.5618
lfemur -28.9541 -7.63876 -33.2663
ltibia 45.5968
lfoot -21.6571 13.8984
ltoes 9.061
715
root 3.65612 16.4995 0.319607 9.57873 5.07042 5.43126
lowerback -4.84435 3.46023 0.879313
upperback 0.957546 4.69976 -3.40648
thorax 4.06455 2.40527 -3.61901
lowerneck 1.31871 7.88282 5.38966
upperneck 57.8367 10.2241 7.79803
head 26.2783 5.94304 5.77407
rclavicle -3.43401e-014 2.49972e-014
rhumerus -43.9363 -3.01675 -86.6423
rradius 59.7527
rwrist -46.6372
rhand -5.84573 -50.8556
rfingers 7.12502
rthumb 19.9806 -79.8484
lclavicle -3.43401e-014 2.49972e-014
lhumerus -21.4155 -5.45879 85.8447
lradius 37.3554
lwrist 73.2204
lhand -43.2069 -15.8372
lfingers 7.12502
lthumb -16.0576 13.5175
rfemur -51.9623 12.6774 5.18466
rtibia 76.6629
rfoot 7.7853 11.7774
rtoes -26.8983
lfemur -28.9096 -7.64461 -33.3182
ltibia 45.5673
lfoot -21.7423 13.8965
ltoes 9.04332
716
root 3.6518 16.5007 0.320853 9.57578 5.01984 5.42891
lowerback -4.88944 3.31716 0.707452
upperback 1.01247 4.51416 -3.25435
thorax 4.10675 2.30671 -3.3777
lowerneck 1.25737 8.00977 5.08998
upperneck 57.8872 10.5138 7.72819
head 26.3041 5.97116 5.84275
rclavicle -2.59662e-015 1.19271e-015
rhumerus -43.8275 -2.51456 -86.6542
rradius 59.7683
rwrist -46.6154
rhand -5.55591 -51.0413
rfingers 7.12502
rthumb 20.2592 -80.0047
lclavicle -2.59662e-015 1.19271e-015
lhumerus -21.3673 -4.92958 85.8417
lradius 37.312
lwrist 72.9998
lhand -41.4475 -16.1289
lfingers 7.12502
lthumb -14.3629 13.3542
rfemur -52.0159 12.8641 5.17811
rtibia 76.6891
rfoot 7.85536 11.5976
rtoes -26.6781
lfemur -28.9034 -7.6011 -33.3012
ltibia 45.5528
lfoot -21.785 13.9188
ltoes 8.84304
717
root 3.64694 16.5002 0.318765 9.5806 5.03875 5.35531
lowerback -4.86913 3.16188 0.619967
upperback 1.03297 4.30497 -3.08933
thorax 4.0822 2.19766 -3.17716
lowerneck 1.24817 8.13317 4.85623
upperneck 57.875 10.8193 7.57346
head 26.2433 6.02087 5.82829
rclavicle -1.33186e-014 -2.3059e-014
rhumerus -43.6621 -2.06237 -86.6308
rradius 59.7272
rwrist -46.6374
rhand -5.66924 -50.5613
rfingers 7.12502
rthumb 20.1503 -79.5362
lclavicle -1.33186e-014 -2.3059e-014
lhumerus -21.3635 -4.47696 85.8444
lradius 37.3138
lwrist 72.8648
lhand -44.1982 -15.0034
lfingers 7.12502
lthumb -17.012 14.2717
rfemur -52.0775 13.029 5.26752
rtibia 76.7243
rfoot 7.86932 11.4275
rtoes -26.5317
lfemur -28.9616 -7.56423 -33.1944
ltibia 45.548
lfoot -21.6901 13.9133
ltoes 8.76677
718
root 3.64917 16.5028 0.32251 9.55645 5.19985 5.3222
lowerback -4.86758 2.96174 0.577218
upperback 1.05387 4.03394 -2.93609
thorax 4.07092 2.05931 -3.01829
lowerneck 1.26653 8.25961 4.7878
upperneck 57.8397 11.2066 7.20947
head 26.2137 6.12005 5.67249
rclavicle -3.50606e-014 6.65929e-015
rhumerus -43.5388 -1.58353 -86.6235
rradius 59.6725
rwrist -46.7168
rhand -6.07787 -50.0789
rfingers 7.12502
rthumb 19.7575 -79.0948
lclavicle -3.50606e-014 6.65929e-015
lhumerus -21.4187 -4.04954 85.862
lradius 37.2856
lwrist 72.7489
lhand -44.6583 -15.0227
lfingers 7.12502
lthumb -17.4548 14.2137
rfemur -51.9462 12.9855 5.33196
rtibia 76.7337
rfoot 7.81789 11.3633
rtoes -25.8835
lfemur -28.8899 -7.64033 -33.1671
ltibia 45.5376
lfoot -21.6371 13.9011
ltoes 8.66678
719
root 3.6515 16.505 0.326161 9.53758 5.30839 5.36429
lowerback -4.92281 2.77664 0.449783
upperback 1.11718 3.79112 -2.80704
thorax 4.13541 1.934 -2.83064
lowerneck 1.20559 8.38632 4.69827
upperneck 57.7983 11.5844 6.86865
head 26.2126 6.20882 5.5436
rclavicle -3.70485e-014 9.34288e-015
rhumerus -43.4231 -1.10438 -86.6474
rradius 59.6314
rwrist -46.8103
rhand -6.5759 -49.0411
rfingers 7.12502
rthumb 19.2787 -78.1055
lclavicle -3.70485e-014 9.34288e-015
lhumerus -21.3254 -3.68368 85.8909
lradius 37.2152
lwrist 72.6431
lhand -43.8056 -15.2485
lfingers 7.12502
lthumb -16.6341 14.0587
rfemur -51.8714 12.9353 5.28723
rtibia 76.7587
rfoot 7.96331 11.3494
rtoes -24.4882
lfemur -28.8101 -7.73271 -33.2197
ltibia 45.5274
lfoot -21.6952 13.8377
ltoes 8.73106
720
root 3.64708 16.5038 0.323054 9.54964 5.2828 5.42782
lowerback -4.92291 2.63727 0.211545
upperback 1.16662 3.61582 -2.68496
thorax 4.15352 1.83924 -2.58532
lowerneck 1.08641 8.50772 4.45631
upperneck 57.81 11.8581 6.7851
head 26.2323 6.2425 5.59176
rclavicle -1.66482e-015 -2.92213e-014
rhumerus -43.281 -0.651241 -86.6595
rradius 59.5701
rwrist -46.8968
rhand -6.899 -47.8468
rfingers 7.12502
rthumb 18.968 -76.942
lclavicle -1.66482e-015 -2.92213e-014
lhumerus -21.1209 -3.24956 85.9188
lradius 37.0556
lwrist 72.4821
lhand -43.3564 -15.1299
lfingers 7.12502
lthumb -16.2016 14.213
rfemur -52.0014 13.0569 5.20088
rtibia 76.8306
rfoot 7.8635 11.819
rtoes -25.3875
lfemur -28.8396 -7.7091 -33.2633
ltibia 45.5123
lfoot -21.7254 13.7525
ltoes 8.82649
721
root 3.64096 16.5037 0.320444 9.58435 5.32906 5.38764
lowerback -4.84865 2.50836 0.130863
upperback 1.13806 3.4426 -2.58493
thorax 4.06181 1.74906 -2.4558
lowerneck 0.933061 8.64225 4.13917
upperneck 57.9156 12.0576 6.96906
head 26.3253 6.24673 5.82371
rclavicle 6.3785e-014 -1.76918e-014
rhumerus -43.2392 -0.299479 -86.6971
rradius 59.5385
rwrist -46.9515
rhand -6.95008 -47.2739
rfingers 7.12502
rthumb 18.9188 -76.3738
lclavicle 6.3785e-014 -1.76918e-014
lhumerus -21.1203 -2.92378 85.8974
lradius 37.0311
lwrist 72.4493
lhand -43.5201 -15.2478
lfingers 7.12502
lthumb -16.3592 14.0823
rfemur -52.0995 13.1934 5.24653
rtibia 76.8804
rfoot 7.22572 12.4906
rtoes -28.3146
lfemur -28.9095 -7.66419 -33.1845
ltibia 45.5143
lfoot -21.6676 13.7122
ltoes 8.55951
722
root 3.63789 16.5103 0.324987 9.59846 5.42848 5.21725
lowerback -4.8748 2.37877 0.22883
upperback 1.1161 3.25827 -2.46993
thorax 4.04358 1.6578 -2.40699
lowerneck 0.79076 8.79033 3.77406
upperneck 57.9573 12.2493 7.20602
head 26.2928 6.25157 6.06992
rclavicle -2.61899e-014 2.5842e-014
rhumerus -43.2888 0.0484037 -86.7604
rradius 59.6394
rwrist -46.9985
rhand -6.98919 -46.9618
rfingers 7.12502
rthumb 18.8812 -76.0654
lclavicle -2.61899e-014 2.5842e-014
lhumerus -21.2232 -2.65755 85.8567
lradius 37.1162
lwrist 72.5463
lhand -42.9944 -16.0912
lfingers 7.12502
lthumb -15.8529 13.2798
rfemur -52.0503 13.3359 5.43949
rtibia 76.8482
rfoot 6.9058 12.5972
rtoes -29.311
lfemur -28.9287 -7.66507 -32.9741
ltibia 45.5321
lfoot -21.6221 13.7166
ltoes 8.27448
